<svg xmlns="http://www.w3.org/2000/svg" viewBox="0 0 32 32">
  <rect width="32" height="32" rx="6" fill="#1a1510"/>
  <path d="M13 6h6v7l5 9a3 3 0 0 1-2.6 4.5H10.6A3 3 0 0 1 8 22l5-9V6z" fill="none" stroke="#c8860a" stroke-width="1.5" stroke-linejoin="round"/>
  <path d="M13 13l-5 9a3 3 0 0 0 2.6 4.5h10.8A3 3 0 0 0 24 22l-5-9z" fill="#c8860a" opacity="0.25"/>
  <line x1="12" y1="6" x2="20" y2="6" stroke="#c8860a" stroke-width="1.5" stroke-linecap="round"/>
  <circle cx="16" cy="20" r="1.5" fill="#c8860a" opacity="0.6"/>
  <circle cx="14" cy="22" r="1" fill="#c8860a" opacity="0.4"/>
  <circle cx="18.5" cy="21.5" r="0.8" fill="#c8860a" opacity="0.5"/>
</svg>
